<?xml version="1.0" standalone="no"?>
<!DOCTYPE svg PUBLIC "-//W3C//DTD SVG 20010904//EN"
 "http://www.w3.org/TR/2001/REC-SVG-20010904/DTD/svg10.dtd">
<svg version="1.0" xmlns="http://www.w3.org/2000/svg"
 width="1500.000000pt" height="1500.000000pt" viewBox="0 0 1500.000000 1500.000000"
 preserveAspectRatio="xMidYMid meet">
<metadata>
Created by potrace 1.14, written by Peter Selinger 2001-2017
</metadata>
<g transform="translate(0.000000,1500.000000) scale(0.100000,-0.100000)"
fill="#000000" stroke="none">
<path d="M0 7500 l0 -7500 7500 0 7500 0 0 7500 0 7500 -7500 0 -7500 0 0
-7500z m5700 2475 l0 -1735 1810 0 1810 0 0 1735 0 1735 890 0 890 0 0 -4210
0 -4210 -890 0 -890 0 -2 1738 -3 1737 -1805 0 -1805 0 -3 -1738 -2 -1737
-890 0 -890 0 0 4210 0 4210 890 0 890 0 0 -1735z"/>
</g>
</svg>
